# xmcd
#
# Track frame offsets: 
#        150
#        19031
#        43984
#        58500
#        76367
#        94013
#        118445
#        138618
#        156875
#        175007
#        201049
#
# Disc length: 3072 seconds
#
# Revision: 0
# Processed by: cddbd v1.5.2PL0 Copyright (c) Steve Scherf et al.
# Submitted via: ExactAudioCopy v0.99pb3
#
DISCID=950bfe0b
DTITLE=Ray Bailey - Cruisin' For A Bluesin'
DYEAR=2012
DGENRE=Blues
TTITLE0=Ho's Heart
TTITLE1=I Think About You Every Day
TTITLE2=Tie A Knot
TTITLE3=Red Headed Child
TTITLE4=Cruisin' For A Bluesin'
TTITLE5=My Baby's On A Mission
TTITLE6=I'm Gonna Keep On Loving You
TTITLE7=Little Girl
TTITLE8=Get Out Of Jail Free Card
TTITLE9=I Just Can't Cry No More
TTITLE10=Going Down Slow
EXTD=
EXTT0=
EXTT1=
EXTT2=
EXTT3=
EXTT4=
EXTT5=
EXTT6=
EXTT7=
EXTT8=
EXTT9=
EXTT10=
PLAYORDER=
